# xmcd
#
# Track frame offsets:
#	150
#	17333
#	37120
#	54471
#	72047
#	90965
#	104635
#	119076
#	145511
#	161188
#	176929
#	189702
#	204289
#	218469
#	233193
#	255557
#
# Disc length: 3555 seconds
#
# Revision: 3
# Processed by: cddbd v1.5.2PL0 Copyright (c) Steve Scherf et al.
# Submitted via: audiograbber 1.83.01
#
DISCID=de0de110
DTITLE=Lith-Inn O'Wevidle - Tepla zidle
DYEAR=2008
DGENRE=R&B
TTITLE0=Litinove vidle
TTITLE1=Valka svetu
TTITLE2=Mesic
TTITLE3=Na dne
TTITLE4=Tepla zidle
TTITLE5=Patek trinactyho
TTITLE6=Bagr
TTITLE7=Na lasku to nevypada
TTITLE8=Nebudeme mluvit
TTITLE9=Vcerejsi den
TTITLE10=Vanocni
TTITLE11=Posledni nacelnik
TTITLE12=Radostna pisen
TTITLE13=Zlo a zavist
TTITLE14=Zapomen
TTITLE15=Vzdej to
EXTD=
EXTT0=
EXTT1=
EXTT2=
EXTT3=
EXTT4=
EXTT5=
EXTT6=
EXTT7=
EXTT8=
EXTT9=
EXTT10=
EXTT11=
EXTT12=
EXTT13=
EXTT14=
EXTT15=
PLAYORDER=
